<svg id="a162a8e3-dfd7-44c9-bef4-d207a8321e34" data-name="Calque 1" xmlns="http://www.w3.org/2000/svg" viewBox="0 0 255.12 255.12"><defs><style>.ee0de8f8-f4f3-4c67-a791-fee996b1aadb{fill:none;stroke:#1d1d1b;stroke-miterlimit:10;stroke-width:4px;}.a061ff06-0bc6-4569-b97d-13980c72baa8{fill:#1d1d1b;}</style></defs><circle class="ee0de8f8-f4f3-4c67-a791-fee996b1aadb" cx="127.25" cy="127.64" r="120.47"/><path class="a061ff06-0bc6-4569-b97d-13980c72baa8" d="M223.94,122.29c-4.17-9-7.22-17.24-6.1-27.69,1.8-16.72-3.36-32.79-10.72-47.61-4.81-9.69-8.27-11-17-9-3.35.74-6.92,1.5-9.78,3.25-6.17,3.79-11.87,8.32-17.92,12.31a7.56,7.56,0,0,1-5.13,1.23c-4.84-1-9.52-2.79-14.35-3.86-17.43-3.84-33.94.5-50.28,6h0c-8-8.51-17.44-15.22-28.42-19.18-6.64-2.39-10-1.1-13.24,5.32A157.08,157.08,0,0,0,40.6,69.19C36.75,82.4,36.2,96,40,109.44c1.23,4.4,0,8.11-3.14,11.39-10.3,10.7-13,24.43-12.43,38.19A51.24,51.24,0,0,0,38.9,193c.94,1,1.68,2.13,2.84,3.61l-.11,0a5.22,5.22,0,0,1,.59,1.63,4.94,4.94,0,0,1,.75,1.25,5.16,5.16,0,0,1,.44.67,4,4,0,0,1,.33.39,4.18,4.18,0,0,1,1,1.08,3.3,3.3,0,0,1,.3.22,4.47,4.47,0,0,1,.84.54,5.43,5.43,0,0,1,.75.43,4.87,4.87,0,0,1,1.06.63c4.25,2.83,7.67,5.54,11.5,7.43A5.72,5.72,0,0,1,61.7,213a4.08,4.08,0,0,1,1,.76,4.25,4.25,0,0,1,1.31.81,4.9,4.9,0,0,1,.87.39l16.77,6.64c-.29-1.64-.26-1.89-.36-2-.67-.46-1.36-.9-2.06-1.32C65.51,210.17,51,203.6,40.74,190.15,34,181.24,29,172.26,28,161.21c-.3-3.35,0-6.75,0-11.25,15.81,12,29.81,10.12,43.2-2.22,3.52,2.66,7.24,2.26,11.07.23,2.49-1.31,5.06-2.5,7.68-3.57,9.6-3.93,19.18-5.6,29.07.65l-3.6,2.51c-5.23,3.68-6.13,7.21-2,11.92,2.87,3.3,6.61,5.9,10.18,8.51,2.1,1.53,3.12,2.73,2.38,5.66-1.54,6.09-7.61,11.79-14.63,11.95-6.11.13-12.25-.65-18.49-1,1.61,1,3.42,2.88,5.5,3.24,5.76,1,11.63,1.36,17.72,2,.61,1.87.89,4.7,2.3,6.76,6.82,10,14.32,9.86,23.48-.64,4.37-5,8.37-7.4,14.29-8.27a11.65,11.65,0,0,0,4.65-1.7,24.68,24.68,0,0,0,3.69-3.68c-7.66,4.37-15.28,4-23.15,2.47-6.14-1.2-8.3-6-10.36-10.87s1.91-6.6,4.88-9c7.43-6,7-12.58-1-17.75-.33-.21-.43-.8-.85-1.62,5.89-1.16,11.64-1.94,17.19-3.47,5.79-1.6,10.29-1,14.81,3.6,2.43,2.46,7.27,4.75,10.23,4,6.34-1.6,10.85.39,15.5,3.86a36.72,36.72,0,0,0,5.17,3c8,4.1,15.75,4.78,23.25-1.24a71.16,71.16,0,0,1,7.06-4.41,29,29,0,0,1,.9,4.63c.33,15.25-5.8,28.2-15.73,39.09a103,103,0,0,1-31.62,23.86,70.12,70.12,0,0,0-7.09,4.46l1,1.79,17.15-8.21v0a4.75,4.75,0,0,1,1.84-.6,5.87,5.87,0,0,1,.59-.37,4.39,4.39,0,0,1,1.57-.93v-.21c6.33-6,12.57-11.89,18.73-17.84a33.94,33.94,0,0,0,4.57-5.24C233.91,169.24,234.87,145.93,223.94,122.29ZM80.47,140c-1-1.19-2.89-2.71-2.63-3.49.54-1.61,2.27-2.81,3.51-4.17l3.79,3.49Zm7.87-19.3a16.37,16.37,0,0,1,4-19.6c1.82-1.65,4.36-2.53,6.31-3.61,2.64.91,5.1,1,6.23,2.28,4.94,5.59,11.26,10.26,12.14,18.69.83,7.89-5.71,14.77-13.6,13.62A19.5,19.5,0,0,1,88.34,120.69Zm54.52,69.11c-1.66,5.46-8.5,11.93-13.89,10.94-3.14-.58-6.73-3.66-8.35-6.59-3.91-7.05,2-10.38,6-13.44ZM161,125.05c-3.07,2.45-7.08,4.57-10.89,5a9.56,9.56,0,0,1-10.48-6.8c-2-6.37-.7-12.72,4.24-16.89,3.69-3.11,8.83-5.09,13.63-6.12,4.26-.92,7.57,1.9,8.51,6.56.69,3.4,1.34,6.81,2,10.22C169.17,122.74,163.6,123,161,125.05Zm10.14,17.52c-1.37-2.48-3-4.14-2.6-5,.87-2.06,2.64-3.75,4-5.59,1,1.45,3,3.1,2.76,4.32C175,138.21,173.12,139.81,171.15,142.57Zm53.25,2.31c-5.1,10.51-15.06,12.45-23.54,7.67a50.67,50.67,0,0,0-5.62-3.2c-11.05-4.45-10.82-9.54-6.25-19l-3.73-1c.11-1.3.23-2.64.24-2.71l-15.12-6.55c-.36-4.25-.1-8.78-1.21-13-2.56-9.6-11.38-12.49-20-7.56-8,4.6-12.91,10.82-12.76,20.3.16,10.6,10.45,16.53,20,11.62a6.19,6.19,0,0,1,1.41-.35c2.9,5.16,2.17,6.67-3.09,7.57-6.86,1.17-13.63,3.21-20.53,3.77a39,39,0,0,1-15.55-1.69c-7.75-2.67-15.08-6.32-23.93-2.42-.18-2.22-.32-4-.5-6.19,1.53.37,2.61.55,3.63.9,8,2.78,13.23,1.85,17.62-3.15s5.21-13.7,2.28-20.11c-2.79-6.1-8-9.65-13.31-13-3.89-2.47-9.46-1-12.83,2.24-5.18,5-7.48,11-7.59,18.26-.1,6.73-5.39,9.45-11.21,6.26-.69-.37-1.72-.12-2.6-.16l.73,5.2-3.38,1.57,3.4,4.19c-2.08,4.28.39,10.72-5.49,14.17-6.35,3.71-12.64,7.07-20.54,6-6.91-1-11-5.65-15.08-10.31-.84-1-.79-3.39-.22-4.76,2-4.86,3.6-10.23,6.87-14.13,5.07-6.07,8-11.14,6.71-20.15C41.56,94.08,43.74,82.37,45,71a59.7,59.7,0,0,1,4.32-16.3c2-4.76,5.21-9,8.14-13.33.5-.73,2.27-.9,3.42-.83,6,.32,10.92,3,15.71,6.64s10.67,6.52,16.07,9.71L84.36,66l1,1.08c1.13-.46,2.53-.64,3.34-1.43,9.21-9,21.46-8.69,32.9-11,13.52-2.69,25.93,1,38.06,6.33,1.61.71,2.79,2.36,4.37,3.18a24,24,0,0,0,4.7,1.31,32.7,32.7,0,0,0-.31-4.86c-.18-.88-1-1.63-1.76-2.69,4.63-4.88,8.83-9.85,15.92-11.38,3.66-.79,6.94-3.24,10.58-4.28,1.53-.43,4.46.29,5.21,1.46C207.45,58.18,215.75,73,213.61,91c-.87,7.32-1.9,14.63-2.75,21.16,1.81,2,3.45,3.75,4.93,5.59a87.35,87.35,0,0,1,5.64,7.53C225.3,131.35,227.67,138.14,224.4,144.88Z"/></svg>