<svg id="b911c2ba-fd06-4d3c-b9b7-0544ed82b516" data-name="Calque 1" xmlns="http://www.w3.org/2000/svg" viewBox="0 0 198.43 198.43"><defs><style>.bb1c099a-5c26-4ea0-9b1b-be17a4f547ad,.fe26dfe2-1595-43ff-a9fd-46bc10ea900c{fill:none;}.bb1c099a-5c26-4ea0-9b1b-be17a4f547ad,.e16125cc-10b9-4a1c-9522-16ba7be3c902,.e9282f68-6d67-4313-aa5f-52d437d67097,.fe26dfe2-1595-43ff-a9fd-46bc10ea900c{stroke:#1d1d1b;}.a2b8a2ab-d16f-46b6-9ee4-f674115ea6e0,.aa4386dd-cf89-495d-b393-5c261b9a49ce,.bb1c099a-5c26-4ea0-9b1b-be17a4f547ad,.e16125cc-10b9-4a1c-9522-16ba7be3c902,.e9282f68-6d67-4313-aa5f-52d437d67097,.fe26dfe2-1595-43ff-a9fd-46bc10ea900c{stroke-miterlimit:10;}.bb1c099a-5c26-4ea0-9b1b-be17a4f547ad{stroke-width:3px;}.a2b8a2ab-d16f-46b6-9ee4-f674115ea6e0,.a976cda6-94eb-4309-b1fc-66c0f3bd5263,.bffe2a5c-97e2-46f5-ad7f-0efcc34c1409,.e16125cc-10b9-4a1c-9522-16ba7be3c902,.ed8c5b17-be89-4917-be16-a70081e8e099,.fffca61b-1d68-4eab-9d4b-61539605b5fe{fill:#1d1d1b;}.bf797d56-8467-4610-ae0e-23acc77c5eef{opacity:0.24;}.aa4386dd-cf89-495d-b393-5c261b9a49ce,.e9282f68-6d67-4313-aa5f-52d437d67097{fill:#fff;}.a2b8a2ab-d16f-46b6-9ee4-f674115ea6e0,.aa4386dd-cf89-495d-b393-5c261b9a49ce{stroke:#fff;}.fe26dfe2-1595-43ff-a9fd-46bc10ea900c{stroke-width:0.75px;}.a976cda6-94eb-4309-b1fc-66c0f3bd5263{font-size:16.95px;}.a976cda6-94eb-4309-b1fc-66c0f3bd5263,.bffe2a5c-97e2-46f5-ad7f-0efcc34c1409,.fffca61b-1d68-4eab-9d4b-61539605b5fe{font-family:Roboto-Medium, Roboto;font-weight:500;}.fffca61b-1d68-4eab-9d4b-61539605b5fe{font-size:14px;}.bffe2a5c-97e2-46f5-ad7f-0efcc34c1409{font-size:18px;}.a2b8a2ab-d16f-46b6-9ee4-f674115ea6e0{stroke-width:0.5px;}</style></defs><path class="bb1c099a-5c26-4ea0-9b1b-be17a4f547ad" d="M171.38,99.91a73.7,73.7,0,1,1-73.7-73.7c24.92,0,48.69,13.45,62,33.77A75.63,75.63,0,0,1,171.38,99.91Z"/><path class="e16125cc-10b9-4a1c-9522-16ba7be3c902" d="M100.29,171.74c.06-.77-8.14-1-16.67-3.29-21.47-5.79-33.37-21.72-36.13-25.51a41.15,41.15,0,0,1-7.32-17.18c-1-5.83,0-8.85,1.26-10.86.55-.89,2.42-3.86,5.81-4.3,2.44-.31,5.93.65,6.82,3.29a5.21,5.21,0,0,1-1.51,5.3c-1.45,1.26-2.72.57-4,2a4.06,4.06,0,0,0-1,3.79,3.77,3.77,0,0,0,2,2c3.29,1.6,8.92-.32,11.87-4.29a12.25,12.25,0,0,0,2.27-7.33,15.05,15.05,0,0,0-3.53-9.6c-5.55-6.26-16.46-6.17-22.49-1.77a16.25,16.25,0,0,0-3.79,4,20.75,20.75,0,0,0-3.28,11.36,28.81,28.81,0,0,0,1.26,9.6,40,40,0,0,0,3.79,8.72c7.63,13,22.67,22.8,22.67,22.8C64.8,164.81,76.05,172,91.07,172.5,95,172.63,100.25,172.36,100.29,171.74Z"/><path class="e16125cc-10b9-4a1c-9522-16ba7be3c902" d="M112.29,41c-2.57-11.59-4.31-13.86-5.43-13.81-1.9.1-3.24,7.06-3.41,7.93-1.14,5.94.61,6.72-.76,9.58-2.29,4.82-9,6.2-9.47,9.34a17.51,17.51,0,0,1-.93,3.6s-.22.6-.46,1.12C90.1,62.5,80,66.78,80,66.78c-8.27,3.48-8.6,3.74-8.84,4.34-1.88,4.55,6.32,14.39,15.53,16.62A29.72,29.72,0,0,0,97.14,88c3.52-.54,3.64-1.24,7.07-1.91,4.71-.93,13.4-1.38,15.16,2.42.92,2-.44,4.41-.63,4.73-.76,1.3-2.2,2.58-7.25,3.8-4.38,1-6.41.83-10.31,1.32A52,52,0,0,0,90.06,101c-4.2,1.46-12.52,4.36-12.5,8.18,0,1.92,2.11,3.29,2.33,3.42,2.18,1.38,4.92.62,8.4-.35,2.76-.77,2.74-1.17,4.55-1.54a16.06,16.06,0,0,1,8.09.77c4.71,1.43,7.47,3.95,11.11,7.29s3.88,4.56,3.79,5.49c-.13,1.41-1.18,1.7-2.65,4.35a20.38,20.38,0,0,0-2,5.25c-1,3.77-.12,3.84-.92,7.05-.18.72-2,7.64-5.57,9.17a1.7,1.7,0,0,0-.89.64c-.8,1.28.69,3.94,2.28,5.62,2.37,2.53,4.74,2.6,5.3,4.86a1.93,1.93,0,0,1,0,1.28c-.84,1.84-5.78,1.16-6.82,1-5-.69-6.53-2.64-7.58-1.79-1.52,1.23-.14,6.78,3.28,10a11.63,11.63,0,0,0,2.48,1.72c4.35,2.11,20.39-.59,37.44-15,7.1-6,22.8-19.68,28-43.2A73.88,73.88,0,0,0,169,87.1c-2.35-13.2-8.71-25.83-8.68-25.84a21.45,21.45,0,0,1,.86,2.26,11.83,11.83,0,0,0,.45,1.21c.1.23.19.4.38.83s.25.54.32.71a28.56,28.56,0,0,1,2,10.35,20.27,20.27,0,0,1-2.4,10,17.64,17.64,0,0,1-6.95,7c-1.59.86-8.5,4.24-15,.51a14.48,14.48,0,0,1-6.63-8.92,14.63,14.63,0,0,1,1.95-11,9.57,9.57,0,0,1,5.12-4.29c1.79-.53,4.63-.63,5.81.88a3.06,3.06,0,0,1,.7,2.16,3.48,3.48,0,0,1-.39,1.06,8,8,0,0,1-2,2.52c-1.5,1.36-2.24,1.62-3.06,2.94a2.69,2.69,0,0,0-.23.51,4.91,4.91,0,0,0,1.26,4.6c2.11,2.24,5.41,1.39,5.81,1.28,2.86-.79,4.23-3.38,4.8-4.47.68-1.29,2-4.44.89-10.48-1.86-9.78-8.19-16.2-11.12-19.18-4.51-4.57-7-7.07-11.24-8.3-3.8-1.1-7-.59-9-3.2-1.21-1.56-.63-2.46-2.14-6.13-.35-.83-2.65-6.42-4.3-6.14-.68.12-.9,1.19-2.27,5.88-.62,2.1-1.15,3.84-1.53,5.08"/><g class="bf797d56-8467-4610-ae0e-23acc77c5eef"><path class="ed8c5b17-be89-4917-be16-a70081e8e099" d="M101.12,63.21c3.21,0,3.22-5,0-5s-3.23,5,0,5Z"/></g><g class="bf797d56-8467-4610-ae0e-23acc77c5eef"><path class="ed8c5b17-be89-4917-be16-a70081e8e099" d="M101.12,63.22l1.1,0,.67-.09a1.94,1.94,0,0,0,.85-.45,1.21,1.21,0,0,0,.45-.45,1.83,1.83,0,0,0,.44-.85l.09-.66-.09-.67a1.83,1.83,0,0,0-.44-.85,1.87,1.87,0,0,0-.7-.64,4.49,4.49,0,0,0-1.1-.43l-.46-.07-.46-.05h-.3a4.36,4.36,0,0,0-1.18.2c-.24.08-.47.19-.7.29l-.13.06a1.32,1.32,0,0,0-.25.16,2.48,2.48,0,0,0-.9.89,1.85,1.85,0,0,0-.29.93,1.89,1.89,0,0,0,0,1,2.5,2.5,0,0,0,.64,1.1l.35.44a2.4,2.4,0,0,0,2.73.51,1.93,1.93,0,0,0,.81-.51l.39-.51a2.53,2.53,0,0,0,.34-1.26l-.09-.67a2.5,2.5,0,0,0-.64-1.1l-.35-.43L101.43,63a2,2,0,0,1,.38-.21l-.59.25a1.75,1.75,0,0,1,.51-.14l-.66.09a2.35,2.35,0,0,1,.53,0l-.67-.09a2.09,2.09,0,0,1,.49.13l-.6-.25.14.06,1.26-4.65-1.1,0a1.89,1.89,0,0,0-1,.21,1.85,1.85,0,0,0-.8.52,1.82,1.82,0,0,0-.52.8,1.89,1.89,0,0,0-.21,1l.09.66a2.41,2.41,0,0,0,.64,1.1l.5.4a2.57,2.57,0,0,0,1.27.34Z"/></g><ellipse class="aa4386dd-cf89-495d-b393-5c261b9a49ce" cx="105.23" cy="59.1" rx="2.95" ry="1.36" transform="translate(-15.23 51.64) rotate(-25.78)"/><path class="e16125cc-10b9-4a1c-9522-16ba7be3c902" d="M102.88,134c-.38-.52-2,0-3.58,1.22s-2.57,2.56-2.19,3.07,2,0,3.58-1.22S103.27,134.48,102.88,134Z"/><path class="fe26dfe2-1595-43ff-a9fd-46bc10ea900c" d="M97.45,126.17A46.67,46.67,0,0,1,79.54,139a44.32,44.32,0,0,1-7.77,2.27"/><path class="fe26dfe2-1595-43ff-a9fd-46bc10ea900c" d="M96.12,124.56a44,44,0,0,1-18.85,7.77,43.35,43.35,0,0,1-9.57.38"/><path class="fe26dfe2-1595-43ff-a9fd-46bc10ea900c" d="M95.36,122.57a51.66,51.66,0,0,1-29,2.56"/><path class="e16125cc-10b9-4a1c-9522-16ba7be3c902" d="M119.74,89.16a22.81,22.81,0,0,1-6.31,1.52c-.73.07-1.43.09-2.09.09"/><path class="e9282f68-6d67-4313-aa5f-52d437d67097" d="M119.68,92.17q-2.61.47-5.37.83"/><text/><text/><text class="a976cda6-94eb-4309-b1fc-66c0f3bd5263" transform="matrix(0.83, -0.61, 0.59, 0.81, 50.1, 39.69)"> </text><text class="a976cda6-94eb-4309-b1fc-66c0f3bd5263" transform="translate(53.61 37.12) rotate(-33.05) scale(1.03 1)"> </text><text class="a976cda6-94eb-4309-b1fc-66c0f3bd5263" transform="translate(57.28 34.74) rotate(-29.88) scale(1.03 1)"> </text><text class="a976cda6-94eb-4309-b1fc-66c0f3bd5263" transform="translate(61.05 32.57) rotate(-26.7) scale(1.03 1)"> </text><text class="a976cda6-94eb-4309-b1fc-66c0f3bd5263" transform="translate(64.78 30.5) rotate(-21.05) scale(1.03 1)">P</text><text class="a976cda6-94eb-4309-b1fc-66c0f3bd5263" transform="matrix(1, -0.24, 0.23, 0.97, 75.02, 26.59)">E</text><text class="a976cda6-94eb-4309-b1fc-66c0f3bd5263" transform="matrix(1.03, -0.1, 0.1, 1, 84.61, 24.29)">T</text><text class="a976cda6-94eb-4309-b1fc-66c0f3bd5263" transform="translate(94.81 23.29) rotate(2.35) scale(1.03 1)">S</text><text class="a976cda6-94eb-4309-b1fc-66c0f3bd5263" transform="translate(105.22 23.86) rotate(7.91) scale(1.03 1)"> </text><text class="a976cda6-94eb-4309-b1fc-66c0f3bd5263" transform="translate(109.55 24.47) rotate(11.19) scale(1.03 1)"> </text><text class="a976cda6-94eb-4309-b1fc-66c0f3bd5263" transform="matrix(1, 0.26, -0.25, 0.97, 113.82, 25.3)">I</text><text class="a976cda6-94eb-4309-b1fc-66c0f3bd5263" transform="translate(118.51 26.31) rotate(20.85) scale(1.03 1)">N</text><text class="fffca61b-1d68-4eab-9d4b-61539605b5fe" transform="translate(34.82 165.63) rotate(40.53) scale(1.11 1)"> </text><text class="fffca61b-1d68-4eab-9d4b-61539605b5fe" transform="translate(38.11 168.43) rotate(37.86) scale(1.11 1)"> </text><text class="fffca61b-1d68-4eab-9d4b-61539605b5fe" transform="translate(41.54 171.08) rotate(35.2) scale(1.11 1)"> </text><text class="fffca61b-1d68-4eab-9d4b-61539605b5fe" transform="matrix(0.94, 0.6, -0.54, 0.84, 45.07, 173.57)"> </text><text class="fffca61b-1d68-4eab-9d4b-61539605b5fe" transform="translate(48.71 175.88) rotate(29.95) scale(1.11 1)"> </text><text class="bffe2a5c-97e2-46f5-ad7f-0efcc34c1409" transform="matrix(1.01, 0.47, -0.42, 0.91, 52.62, 178.31)">T</text><text class="bffe2a5c-97e2-46f5-ad7f-0efcc34c1409" transform="matrix(1.07, 0.31, -0.28, 0.96, 64.73, 183.87)">H</text><text class="bffe2a5c-97e2-46f5-ad7f-0efcc34c1409" transform="matrix(1.1, 0.16, -0.15, 0.99, 79.44, 187.88)">E</text><text class="bffe2a5c-97e2-46f5-ad7f-0efcc34c1409" transform="matrix(1.11, 0.05, -0.05, 1, 91.48, 189.43)"> </text><text class="bffe2a5c-97e2-46f5-ad7f-0efcc34c1409" transform="matrix(1.11, -0.01, 0.01, 1, 97.03, 189.68)"> </text><text class="bffe2a5c-97e2-46f5-ad7f-0efcc34c1409" transform="matrix(1.11, -0.13, 0.12, 0.99, 102.9, 189.82)">H</text><text class="bffe2a5c-97e2-46f5-ad7f-0efcc34c1409" transform="matrix(1.07, -0.31, 0.28, 0.96, 118.21, 187.86)">O</text><text class="bffe2a5c-97e2-46f5-ad7f-0efcc34c1409" transform="matrix(1.01, -0.48, 0.43, 0.9, 132.65, 183.62)">O</text><text class="bffe2a5c-97e2-46f5-ad7f-0efcc34c1409" transform="matrix(0.92, -0.63, 0.57, 0.82, 146.22, 177.09)">D</text><path class="a2b8a2ab-d16f-46b6-9ee4-f674115ea6e0" d="M77,110.91a7.2,7.2,0,0,1,1.63-1.53A7.27,7.27,0,0,1,82,108.14"/><path class="a2b8a2ab-d16f-46b6-9ee4-f674115ea6e0" d="M78.89,112.58a3.53,3.53,0,0,1,1-1,3.83,3.83,0,0,1,2.52-.59"/><path class="bb1c099a-5c26-4ea0-9b1b-be17a4f547ad" d="M192.37,98.84A93.55,93.55,0,1,1,98.82,5.29c31.63,0,61.8,17.08,78.64,42.86A96,96,0,0,1,192.37,98.84Z"/><polyline class="ed8c5b17-be89-4917-be16-a70081e8e099" points="8.57 97.37 15.39 82.78 19.95 97.49 14.27 94.44"/><polyline class="ed8c5b17-be89-4917-be16-a70081e8e099" points="186.75 83.07 181.9 98.42 175.45 84.44 181.49 86.72"/></svg>