<svg id="a86bbf6d-118c-4b17-89df-ead396e2e651" data-name="Calque 1" xmlns="http://www.w3.org/2000/svg" viewBox="0 0 164.41 164.41"><defs><style>.bf154ce9-2b75-4b23-95aa-9875d05f3968,.e19249e7-2a6b-4496-a647-3ac93742dd6a{fill:none;}.af7e5e84-ea3f-4f87-8411-674a6fc2d2f3,.bf154ce9-2b75-4b23-95aa-9875d05f3968,.e19249e7-2a6b-4496-a647-3ac93742dd6a,.e451c42a-f0f2-44d3-81f7-3d11ba575766{stroke:#1d1d1b;}.af7e5e84-ea3f-4f87-8411-674a6fc2d2f3,.b91a1d84-5229-4750-9199-5a5e44512814,.bf154ce9-2b75-4b23-95aa-9875d05f3968,.e19249e7-2a6b-4496-a647-3ac93742dd6a,.e451c42a-f0f2-44d3-81f7-3d11ba575766{stroke-miterlimit:10;}.bf154ce9-2b75-4b23-95aa-9875d05f3968{stroke-width:3px;}.af7e5e84-ea3f-4f87-8411-674a6fc2d2f3,.b9afb893-3628-4726-80c0-2ea39eac7643{fill:#1d1d1b;}.b1c77807-deac-41d1-b9db-8e82bb163b3f{opacity:0.24;}.b91a1d84-5229-4750-9199-5a5e44512814,.e451c42a-f0f2-44d3-81f7-3d11ba575766{fill:#fff;}.b91a1d84-5229-4750-9199-5a5e44512814{stroke:#fff;}.e19249e7-2a6b-4496-a647-3ac93742dd6a{stroke-width:0.75px;}</style></defs><path class="bf154ce9-2b75-4b23-95aa-9875d05f3968" d="M155.52,81.83a73.7,73.7,0,1,1-73.7-73.7c24.91,0,48.69,13.45,62,33.77A75.55,75.55,0,0,1,155.52,81.83Z"/><path class="af7e5e84-ea3f-4f87-8411-674a6fc2d2f3" d="M84.43,153.66c0-.77-8.15-1-16.68-3.28-21.47-5.8-33.37-21.72-36.12-25.52a41,41,0,0,1-7.33-17.18c-1-5.83,0-8.85,1.27-10.86.55-.88,2.41-3.85,5.81-4.29,2.44-.32,5.92.64,6.82,3.28a5.23,5.23,0,0,1-1.52,5.3c-1.45,1.26-2.72.58-4,2a4,4,0,0,0-1,3.79,3.77,3.77,0,0,0,2,2c3.3,1.6,8.92-.32,11.87-4.3a12.33,12.33,0,0,0,2.28-7.32,15.12,15.12,0,0,0-3.54-9.6C38.71,81.46,27.81,81.55,21.78,86A16.06,16.06,0,0,0,18,90a20.72,20.72,0,0,0-3.29,11.37A28.76,28.76,0,0,0,16,111a40,40,0,0,0,3.78,8.71c7.64,13,22.68,22.8,22.68,22.8,6.51,4.26,17.75,11.42,32.78,11.94C79.11,154.56,84.39,154.28,84.43,153.66Z"/><path class="af7e5e84-ea3f-4f87-8411-674a6fc2d2f3" d="M96.43,22.88C93.85,11.3,92.11,9,91,9.08c-1.9.09-3.25,7-3.41,7.92-1.15,5.95.6,6.72-.76,9.59-2.3,4.81-9,6.2-9.48,9.33a16.5,16.5,0,0,1-.92,3.61s-.22.59-.46,1.12c-1.74,3.78-11.88,8.05-11.88,8.05-8.27,3.49-8.59,3.74-8.84,4.35-1.88,4.54,6.32,14.38,15.54,16.61a29.76,29.76,0,0,0,10.48.26c3.52-.55,3.65-1.24,7.07-1.92,4.72-.93,13.41-1.38,15.16,2.43.93,2-.44,4.4-.63,4.73-.76,1.29-2.19,2.58-7.25,3.79-4.38,1.06-6.4.84-10.31,1.32A52,52,0,0,0,74.2,83C70,84.42,61.67,87.31,61.69,91.13c0,1.92,2.12,3.29,2.33,3.43,2.18,1.37,4.92.61,8.41-.36,2.76-.77,2.73-1.17,4.55-1.53a15.92,15.92,0,0,1,8.08.76c4.71,1.43,7.47,4,11.12,7.29s3.87,4.56,3.79,5.5c-.14,1.41-1.18,1.7-2.66,4.34a21.06,21.06,0,0,0-2,5.26c-1,3.76-.12,3.83-.92,7.05-.17.71-2,7.63-5.57,9.16a1.76,1.76,0,0,0-.88.64c-.8,1.28.69,4,2.27,5.63,2.38,2.52,4.75,2.59,5.3,4.85a1.82,1.82,0,0,1,0,1.28c-.83,1.85-5.78,1.17-6.82,1-5-.68-6.53-2.64-7.58-1.78-1.52,1.23-.14,6.78,3.29,10a11.73,11.73,0,0,0,2.47,1.72c4.36,2.11,20.4-.59,37.44-15,7.11-6,22.8-19.67,28-43.2A73.57,73.57,0,0,0,153.14,69c-2.34-13.2-8.71-25.83-8.68-25.84a21.25,21.25,0,0,1,.87,2.26,9.5,9.5,0,0,0,.44,1.21l.39.83.31.72a28.52,28.52,0,0,1,2,10.34,20.27,20.27,0,0,1-2.4,10,17.51,17.51,0,0,1-6.95,7c-1.59.86-8.5,4.24-15,.51a14.09,14.09,0,0,1-4.67-20,9.62,9.62,0,0,1,5.11-4.29c1.8-.53,4.63-.62,5.81.88a3.08,3.08,0,0,1,.7,2.16,3.64,3.64,0,0,1-.39,1.07,7.68,7.68,0,0,1-2,2.51c-1.49,1.36-2.23,1.63-3,2.94a2.69,2.69,0,0,0-.24.51,4.94,4.94,0,0,0,1.27,4.61c2.11,2.24,5.4,1.39,5.81,1.27,2.86-.78,4.22-3.38,4.8-4.47.68-1.29,2-4.44.88-10.48C136.26,43,129.93,36.59,127,33.62c-4.52-4.58-7-7.08-11.25-8.31-3.8-1.1-6.94-.59-9-3.2-1.22-1.56-.64-2.46-2.15-6.13-.34-.83-2.64-6.42-4.3-6.14-.68.12-.89,1.19-2.27,5.88-.61,2.1-1.14,3.84-1.53,5.09"/><g class="b1c77807-deac-41d1-b9db-8e82bb163b3f"><path class="b9afb893-3628-4726-80c0-2ea39eac7643" d="M85.25,45.13c3.22,0,3.22-5,0-5s-3.22,5,0,5Z"/></g><g class="b1c77807-deac-41d1-b9db-8e82bb163b3f"><path class="b9afb893-3628-4726-80c0-2ea39eac7643" d="M85.25,45.14l1.11,0L87,45a1.89,1.89,0,0,0,.85-.45,1.21,1.21,0,0,0,.45-.45,1.89,1.89,0,0,0,.45-.85l.09-.66-.09-.67a2.8,2.8,0,0,0-1.15-1.49,4.34,4.34,0,0,0-1.1-.43c-.15,0-.31,0-.46-.06s-.3-.05-.45-.06h-.3a4.86,4.86,0,0,0-1.19.2l-.7.29-.12.06a2.26,2.26,0,0,0-.26.16,2.48,2.48,0,0,0-.89.9,1.71,1.71,0,0,0-.3.92,1.89,1.89,0,0,0,0,1,2.46,2.46,0,0,0,.65,1.1l.34.44a2,2,0,0,0,.81.52,2,2,0,0,0,1,.21A2.75,2.75,0,0,0,86.42,45l.39-.51a2.43,2.43,0,0,0,.34-1.26l-.09-.66a2.53,2.53,0,0,0-.64-1.11L86.07,41l-.5,3.93a1.79,1.79,0,0,1,.38-.22l-.6.25a2.42,2.42,0,0,1,.51-.14l-.66.09a2.35,2.35,0,0,1,.53,0l-.66-.09a2.85,2.85,0,0,1,.48.13L85,44.7l.15.07,1.26-4.66-1.11,0a1.86,1.86,0,0,0-1,.22A2.16,2.16,0,0,0,83,41.68a1.86,1.86,0,0,0-.22,1l.09.66a2.48,2.48,0,0,0,.64,1.11l.51.39a2.53,2.53,0,0,0,1.26.34Z"/></g><ellipse class="b91a1d84-5229-4750-9199-5a5e44512814" cx="89.37" cy="41.02" rx="2.95" ry="1.36" transform="translate(-8.95 42.95) rotate(-25.78)"/><path class="af7e5e84-ea3f-4f87-8411-674a6fc2d2f3" d="M87,115.89c-.38-.51-2,0-3.58,1.22s-2.58,2.56-2.2,3.08,2,0,3.58-1.22S87.4,116.4,87,115.89Z"/><path class="e19249e7-2a6b-4496-a647-3ac93742dd6a" d="M81.58,108.09a46.56,46.56,0,0,1-17.91,12.79,44.57,44.57,0,0,1-7.76,2.28"/><path class="e19249e7-2a6b-4496-a647-3ac93742dd6a" d="M80.25,106.48a44,44,0,0,1-18.85,7.77,42.15,42.15,0,0,1-9.57.38"/><path class="e19249e7-2a6b-4496-a647-3ac93742dd6a" d="M79.49,104.49a51.63,51.63,0,0,1-29,2.56"/><path class="af7e5e84-ea3f-4f87-8411-674a6fc2d2f3" d="M103.87,71.09a23,23,0,0,1-6.31,1.51c-.73.07-1.43.1-2.09.1"/><path class="e451c42a-f0f2-44d3-81f7-3d11ba575766" d="M103.81,74.09q-2.59.48-5.37.83"/><text/><text/></svg>